<svg width="523" height="109" viewBox="0 0 523 109" fill="none" xmlns="http://www.w3.org/2000/svg">
<path d="M2.05597 40.246C3.00797 39.49 3.44197 39.14 3.35797 39.196C6.10197 36.928 8.25797 35.066 9.82597 33.61C11.422 32.154 12.766 30.628 13.858 29.032C14.95 27.436 15.496 25.882 15.496 24.37C15.496 23.222 15.23 22.326 14.698 21.682C14.166 21.038 13.368 20.716 12.304 20.716C11.24 20.716 10.4 21.122 9.78397 21.934C9.19597 22.718 8.90197 23.838 8.90197 25.294H1.97197C2.02797 22.914 2.53197 20.926 3.48397 19.33C4.46397 17.734 5.73797 16.558 7.30597 15.802C8.90197 15.046 10.666 14.668 12.598 14.668C15.93 14.668 18.436 15.522 20.116 17.23C21.824 18.938 22.678 21.164 22.678 23.908C22.678 26.904 21.656 29.69 19.612 32.266C17.568 34.814 14.964 37.306 11.8 39.742H23.14V45.58H2.05597V40.246ZM26.3021 30.25C26.3021 25.434 27.2261 21.64 29.0741 18.868C30.9501 16.096 33.9601 14.71 38.1041 14.71C42.2481 14.71 45.2441 16.096 47.0921 18.868C48.9681 21.64 49.9061 25.434 49.9061 30.25C49.9061 35.122 48.9681 38.944 47.0921 41.716C45.2441 44.488 42.2481 45.874 38.1041 45.874C33.9601 45.874 30.9501 44.488 29.0741 41.716C27.2261 38.944 26.3021 35.122 26.3021 30.25ZM42.8501 30.25C42.8501 27.422 42.5421 25.252 41.9261 23.74C41.3101 22.2 40.0361 21.43 38.1041 21.43C36.1721 21.43 34.8981 22.2 34.2821 23.74C33.6661 25.252 33.3581 27.422 33.3581 30.25C33.3581 32.154 33.4701 33.736 33.6941 34.996C33.9181 36.228 34.3661 37.236 35.0381 38.02C35.7381 38.776 36.7601 39.154 38.1041 39.154C39.4481 39.154 40.4561 38.776 41.1281 38.02C41.8281 37.236 42.2901 36.228 42.5141 34.996C42.7381 33.736 42.8501 32.154 42.8501 30.25ZM53.7005 30.25C53.7005 25.434 54.6245 21.64 56.4725 18.868C58.3485 16.096 61.3585 14.71 65.5025 14.71C69.6465 14.71 72.6425 16.096 74.4905 18.868C76.3665 21.64 77.3045 25.434 77.3045 30.25C77.3045 35.122 76.3665 38.944 74.4905 41.716C72.6425 44.488 69.6465 45.874 65.5025 45.874C61.3585 45.874 58.3485 44.488 56.4725 41.716C54.6245 38.944 53.7005 35.122 53.7005 30.25ZM70.2485 30.25C70.2485 27.422 69.9405 25.252 69.3245 23.74C68.7085 22.2 67.4345 21.43 65.5025 21.43C63.5705 21.43 62.2965 22.2 61.6805 23.74C61.0645 25.252 60.7565 27.422 60.7565 30.25C60.7565 32.154 60.8685 33.736 61.0925 34.996C61.3165 36.228 61.7645 37.236 62.4365 38.02C63.1365 38.776 64.1585 39.154 65.5025 39.154C66.8465 39.154 67.8545 38.776 68.5265 38.02C69.2265 37.236 69.6885 36.228 69.9125 34.996C70.1365 33.736 70.2485 32.154 70.2485 30.25ZM103.107 34.534H95.799V42.01H88.995V34.534H81.687V28.108H88.995V20.59H95.799V28.108H103.107V34.534Z" fill="#FA7436"/>
<path d="M3.213 64.185V76H1.275V64.185H3.213ZM10.4834 66.48C11.2201 66.48 11.8774 66.633 12.4554 66.939C13.0448 67.245 13.5038 67.6983 13.8324 68.299C14.1611 68.8997 14.3254 69.625 14.3254 70.475V76H12.4044V70.764C12.4044 69.9253 12.1948 69.285 11.7754 68.843C11.3561 68.3897 10.7838 68.163 10.0584 68.163C9.33309 68.163 8.75509 68.3897 8.32442 68.843C7.90509 69.285 7.69542 69.9253 7.69542 70.764V76H5.75742V66.633H7.69542V67.704C8.01276 67.3187 8.41509 67.0183 8.90242 66.803C9.40109 66.5877 9.92809 66.48 10.4834 66.48ZM20.1975 76.153C19.4608 76.153 18.7978 76.0227 18.2085 75.762C17.6305 75.49 17.1715 75.1273 16.8315 74.674C16.4915 74.2093 16.3101 73.6937 16.2875 73.127H18.2935C18.3275 73.5237 18.5145 73.858 18.8545 74.13C19.2058 74.3907 19.6421 74.521 20.1635 74.521C20.7075 74.521 21.1268 74.419 21.4215 74.215C21.7275 73.9997 21.8805 73.7277 21.8805 73.399C21.8805 73.0477 21.7105 72.787 21.3705 72.617C21.0418 72.447 20.5148 72.26 19.7895 72.056C19.0868 71.8633 18.5145 71.6763 18.0725 71.495C17.6305 71.3137 17.2451 71.036 16.9165 70.662C16.5991 70.288 16.4405 69.795 16.4405 69.183C16.4405 68.6843 16.5878 68.231 16.8825 67.823C17.1771 67.4037 17.5965 67.075 18.1405 66.837C18.6958 66.599 19.3305 66.48 20.0445 66.48C21.1098 66.48 21.9655 66.752 22.6115 67.296C23.2688 67.8287 23.6201 68.5597 23.6655 69.489H21.7275C21.6935 69.0697 21.5235 68.7353 21.2175 68.486C20.9115 68.2367 20.4978 68.112 19.9765 68.112C19.4665 68.112 19.0755 68.2083 18.8035 68.401C18.5315 68.5937 18.3955 68.8487 18.3955 69.166C18.3955 69.4153 18.4861 69.625 18.6675 69.795C18.8488 69.965 19.0698 70.101 19.3305 70.203C19.5911 70.2937 19.9765 70.4127 20.4865 70.56C21.1665 70.7413 21.7218 70.9283 22.1525 71.121C22.5945 71.3023 22.9741 71.5743 23.2915 71.937C23.6088 72.2997 23.7731 72.7813 23.7845 73.382C23.7845 73.9147 23.6371 74.3907 23.3425 74.81C23.0478 75.2293 22.6285 75.558 22.0845 75.796C21.5518 76.034 20.9228 76.153 20.1975 76.153ZM28.1395 68.214V73.399C28.1395 73.7503 28.2188 74.0053 28.3775 74.164C28.5475 74.3113 28.8308 74.385 29.2275 74.385H30.4175V76H28.8875C28.0148 76 27.3462 75.796 26.8815 75.388C26.4168 74.98 26.1845 74.317 26.1845 73.399V68.214H25.0795V66.633H26.1845V64.304H28.1395V66.633H30.4175V68.214H28.1395ZM34.1417 67.993C34.425 67.517 34.799 67.1487 35.2637 66.888C35.7397 66.616 36.3007 66.48 36.9467 66.48V68.486H36.4537C35.6944 68.486 35.1164 68.6787 34.7197 69.064C34.3344 69.4493 34.1417 70.118 34.1417 71.07V76H32.2037V66.633H34.1417V67.993ZM47.2111 66.633V76H45.2731V74.895C44.9671 75.2803 44.5648 75.5863 44.0661 75.813C43.5788 76.0283 43.0575 76.136 42.5021 76.136C41.7655 76.136 41.1025 75.983 40.5131 75.677C39.9351 75.371 39.4761 74.9177 39.1361 74.317C38.8075 73.7163 38.6431 72.991 38.6431 72.141V66.633H40.5641V71.852C40.5641 72.6907 40.7738 73.3367 41.1931 73.79C41.6125 74.232 42.1848 74.453 42.9101 74.453C43.6355 74.453 44.2078 74.232 44.6271 73.79C45.0578 73.3367 45.2731 72.6907 45.2731 71.852V66.633H47.2111ZM53.4742 71.325L57.7922 76H55.1742L51.7062 71.971V76H49.7682V63.42H51.7062V70.73L55.1062 66.633H57.7922L53.4742 71.325ZM61.4423 68.214V73.399C61.4423 73.7503 61.5216 74.0053 61.6803 74.164C61.8503 74.3113 62.1336 74.385 62.5303 74.385H63.7203V76H62.1903C61.3176 76 60.6489 75.796 60.1843 75.388C59.7196 74.98 59.4873 74.317 59.4873 73.399V68.214H58.3823V66.633H59.4873V64.304H61.4423V66.633H63.7203V68.214H61.4423ZM73.9894 66.633V76H72.0514V74.895C71.7454 75.2803 71.3431 75.5863 70.8444 75.813C70.3571 76.0283 69.8358 76.136 69.2804 76.136C68.5438 76.136 67.8808 75.983 67.2914 75.677C66.7134 75.371 66.2544 74.9177 65.9144 74.317C65.5858 73.7163 65.4214 72.991 65.4214 72.141V66.633H67.3424V71.852C67.3424 72.6907 67.5521 73.3367 67.9714 73.79C68.3908 74.232 68.9631 74.453 69.6884 74.453C70.4138 74.453 70.9861 74.232 71.4054 73.79C71.8361 73.3367 72.0514 72.6907 72.0514 71.852V66.633H73.9894ZM78.4845 67.993C78.7678 67.517 79.1418 67.1487 79.6065 66.888C80.0825 66.616 80.6435 66.48 81.2895 66.48V68.486H80.7965C80.0372 68.486 79.4592 68.6787 79.0625 69.064C78.6772 69.4493 78.4845 70.118 78.4845 71.07V76H76.5465V66.633H78.4845V67.993ZM7.599 95.931C8.23367 96.0443 8.772 96.3787 9.214 96.934C9.656 97.4893 9.877 98.1183 9.877 98.821C9.877 99.4217 9.71833 99.9657 9.401 100.453C9.095 100.929 8.64733 101.309 8.058 101.592C7.46867 101.864 6.783 102 6.001 102H1.275V90.185H5.78C6.58467 90.185 7.276 90.321 7.854 90.593C8.432 90.865 8.86833 91.2333 9.163 91.698C9.45767 92.1513 9.605 92.6613 9.605 93.228C9.605 93.908 9.42367 94.4747 9.061 94.928C8.69833 95.3813 8.211 95.7157 7.599 95.931ZM3.213 95.149H5.61C6.24467 95.149 6.73767 95.0073 7.089 94.724C7.45167 94.4293 7.633 94.01 7.633 93.466C7.633 92.9333 7.45167 92.5197 7.089 92.225C6.73767 91.919 6.24467 91.766 5.61 91.766H3.213V95.149ZM5.831 100.419C6.48833 100.419 7.004 100.26 7.378 99.943C7.752 99.6257 7.939 99.1837 7.939 98.617C7.939 98.039 7.74067 97.58 7.344 97.24C6.94733 96.9 6.42033 96.73 5.763 96.73H3.213V100.419H5.831ZM20.568 97.087C20.568 97.4383 20.5453 97.7557 20.5 98.039H13.343C13.3997 98.787 13.6773 99.3877 14.176 99.841C14.6747 100.294 15.2867 100.521 16.012 100.521C17.0547 100.521 17.7913 100.085 18.222 99.212H20.313C20.0297 100.073 19.514 100.782 18.766 101.337C18.0293 101.881 17.1113 102.153 16.012 102.153C15.1167 102.153 14.312 101.955 13.598 101.558C12.8953 101.15 12.34 100.583 11.932 99.858C11.5353 99.1213 11.337 98.2713 11.337 97.308C11.337 96.3447 11.5297 95.5003 11.915 94.775C12.3117 94.0383 12.8613 93.4717 13.564 93.075C14.278 92.6783 15.094 92.48 16.012 92.48C16.896 92.48 17.6837 92.6727 18.375 93.058C19.0663 93.4433 19.6047 93.9873 19.99 94.69C20.3753 95.3813 20.568 96.1803 20.568 97.087ZM18.545 96.475C18.5337 95.761 18.2787 95.1887 17.78 94.758C17.2813 94.3273 16.6637 94.112 15.927 94.112C15.2583 94.112 14.686 94.3273 14.21 94.758C13.734 95.1773 13.4507 95.7497 13.36 96.475H18.545ZM24.4132 93.993C24.6965 93.517 25.0705 93.1487 25.5352 92.888C26.0112 92.616 26.5722 92.48 27.2182 92.48V94.486H26.7252C25.9659 94.486 25.3879 94.6787 24.9912 95.064C24.6059 95.4493 24.4132 96.118 24.4132 97.07V102H22.4752V92.633H24.4132V93.993ZM32.3996 102.153C31.6629 102.153 30.9999 102.023 30.4106 101.762C29.8326 101.49 29.3736 101.127 29.0336 100.674C28.6936 100.209 28.5123 99.6937 28.4896 99.127H30.4956C30.5296 99.5237 30.7166 99.858 31.0566 100.13C31.4079 100.391 31.8443 100.521 32.3656 100.521C32.9096 100.521 33.3289 100.419 33.6236 100.215C33.9296 99.9997 34.0826 99.7277 34.0826 99.399C34.0826 99.0477 33.9126 98.787 33.5726 98.617C33.2439 98.447 32.7169 98.26 31.9916 98.056C31.2889 97.8633 30.7166 97.6763 30.2746 97.495C29.8326 97.3137 29.4473 97.036 29.1186 96.662C28.8013 96.288 28.6426 95.795 28.6426 95.183C28.6426 94.6843 28.7899 94.231 29.0846 93.823C29.3793 93.4037 29.7986 93.075 30.3426 92.837C30.8979 92.599 31.5326 92.48 32.2466 92.48C33.3119 92.48 34.1676 92.752 34.8136 93.296C35.4709 93.8287 35.8223 94.5597 35.8676 95.489H33.9296C33.8956 95.0697 33.7256 94.7353 33.4196 94.486C33.1136 94.2367 32.6999 94.112 32.1786 94.112C31.6686 94.112 31.2776 94.2083 31.0056 94.401C30.7336 94.5937 30.5976 94.8487 30.5976 95.166C30.5976 95.4153 30.6883 95.625 30.8696 95.795C31.0509 95.965 31.2719 96.101 31.5326 96.203C31.7933 96.2937 32.1786 96.4127 32.6886 96.56C33.3686 96.7413 33.9239 96.9283 34.3546 97.121C34.7966 97.3023 35.1763 97.5743 35.4936 97.937C35.8109 98.2997 35.9753 98.7813 35.9866 99.382C35.9866 99.9147 35.8393 100.391 35.5446 100.81C35.2499 101.229 34.8306 101.558 34.2866 101.796C33.7539 102.034 33.1249 102.153 32.3996 102.153ZM46.6657 97.087C46.6657 97.4383 46.643 97.7557 46.5977 98.039H39.4407C39.4973 98.787 39.775 99.3877 40.2737 99.841C40.7723 100.294 41.3843 100.521 42.1097 100.521C43.1523 100.521 43.889 100.085 44.3197 99.212H46.4107C46.1273 100.073 45.6117 100.782 44.8637 101.337C44.127 101.881 43.209 102.153 42.1097 102.153C41.2143 102.153 40.4097 101.955 39.6957 101.558C38.993 101.15 38.4377 100.583 38.0297 99.858C37.633 99.1213 37.4347 98.2713 37.4347 97.308C37.4347 96.3447 37.6273 95.5003 38.0127 94.775C38.4093 94.0383 38.959 93.4717 39.6617 93.075C40.3757 92.6783 41.1917 92.48 42.1097 92.48C42.9937 92.48 43.7813 92.6727 44.4727 93.058C45.164 93.4433 45.7023 93.9873 46.0877 94.69C46.473 95.3813 46.6657 96.1803 46.6657 97.087ZM44.6427 96.475C44.6313 95.761 44.3763 95.1887 43.8777 94.758C43.379 94.3273 42.7613 94.112 42.0247 94.112C41.356 94.112 40.7837 94.3273 40.3077 94.758C39.8317 95.1773 39.5483 95.7497 39.4577 96.475H44.6427ZM50.5109 93.993C50.7942 93.517 51.1682 93.1487 51.6329 92.888C52.1089 92.616 52.6699 92.48 53.3159 92.48V94.486H52.8229C52.0635 94.486 51.4855 94.6787 51.0889 95.064C50.7035 95.4493 50.5109 96.118 50.5109 97.07V102H48.5729V92.633H50.5109V93.993ZM57.3583 94.214V99.399C57.3583 99.7503 57.4376 100.005 57.5963 100.164C57.7663 100.311 58.0496 100.385 58.4463 100.385H59.6363V102H58.1063C57.2336 102 56.5649 101.796 56.1003 101.388C55.6356 100.98 55.4033 100.317 55.4033 99.399V94.214H54.2983V92.633H55.4033V90.304H57.3583V92.633H59.6363V94.214H57.3583ZM62.4085 91.392C62.0571 91.392 61.7625 91.273 61.5245 91.035C61.2865 90.797 61.1675 90.5023 61.1675 90.151C61.1675 89.7997 61.2865 89.505 61.5245 89.267C61.7625 89.029 62.0571 88.91 62.4085 88.91C62.7485 88.91 63.0375 89.029 63.2755 89.267C63.5135 89.505 63.6325 89.7997 63.6325 90.151C63.6325 90.5023 63.5135 90.797 63.2755 91.035C63.0375 91.273 62.7485 91.392 62.4085 91.392ZM63.3605 92.633V102H61.4225V92.633H63.3605ZM69.8319 94.214H68.0979V102H66.1429V94.214H65.0379V92.633H66.1429V91.97C66.1429 90.8933 66.4262 90.1113 66.9929 89.624C67.5709 89.1253 68.4719 88.876 69.6959 88.876V90.491C69.1065 90.491 68.6929 90.6043 68.4549 90.831C68.2169 91.0463 68.0979 91.426 68.0979 91.97V92.633H69.8319V94.214ZM72.5354 91.392C72.1841 91.392 71.8894 91.273 71.6514 91.035C71.4134 90.797 71.2944 90.5023 71.2944 90.151C71.2944 89.7997 71.4134 89.505 71.6514 89.267C71.8894 89.029 72.1841 88.91 72.5354 88.91C72.8754 88.91 73.1644 89.029 73.4024 89.267C73.6404 89.505 73.7594 89.7997 73.7594 90.151C73.7594 90.5023 73.6404 90.797 73.4024 91.035C73.1644 91.273 72.8754 91.392 72.5354 91.392ZM73.4874 92.633V102H71.5494V92.633H73.4874ZM79.7378 97.325L84.0558 102H81.4378L77.9698 97.971V102H76.0318V89.42H77.9698V96.73L81.3698 92.633H84.0558L79.7378 97.325ZM84.7989 97.274C84.7989 96.3333 84.9916 95.5003 85.3769 94.775C85.7736 94.0497 86.3063 93.4887 86.9749 93.092C87.6549 92.684 88.4029 92.48 89.2189 92.48C89.9556 92.48 90.5959 92.6273 91.1399 92.922C91.6953 93.2053 92.1373 93.5623 92.4659 93.993V92.633H94.4209V102H92.4659V100.606C92.1373 101.048 91.6896 101.416 91.1229 101.711C90.5563 102.006 89.9103 102.153 89.1849 102.153C88.3803 102.153 87.6436 101.949 86.9749 101.541C86.3063 101.122 85.7736 100.544 85.3769 99.807C84.9916 99.059 84.7989 98.2147 84.7989 97.274ZM92.4659 97.308C92.4659 96.662 92.3299 96.101 92.0579 95.625C91.7973 95.149 91.4516 94.7863 91.0209 94.537C90.5903 94.2877 90.1256 94.163 89.6269 94.163C89.1283 94.163 88.6636 94.2877 88.2329 94.537C87.8023 94.775 87.4509 95.132 87.1789 95.608C86.9183 96.0727 86.7879 96.628 86.7879 97.274C86.7879 97.92 86.9183 98.4867 87.1789 98.974C87.4509 99.4613 87.8023 99.8353 88.2329 100.096C88.6749 100.345 89.1396 100.47 89.6269 100.47C90.1256 100.47 90.5903 100.345 91.0209 100.096C91.4516 99.8467 91.7973 99.484 92.0579 99.008C92.3299 98.5207 92.4659 97.954 92.4659 97.308ZM99.2274 94.214V99.399C99.2274 99.7503 99.3067 100.005 99.4654 100.164C99.6354 100.311 99.9187 100.385 100.315 100.385H101.505V102H99.9754C99.1027 102 98.4341 101.796 97.9694 101.388C97.5047 100.98 97.2724 100.317 97.2724 99.399V94.214H96.1674V92.633H97.2724V90.304H99.2274V92.633H101.505V94.214H99.2274Z" fill="black"/>
<path d="M203.311 22.018V15.34H214.945V46H207.469V22.018H203.311ZM219.858 30.25C219.858 25.434 220.782 21.64 222.63 18.868C224.506 16.096 227.516 14.71 231.66 14.71C235.804 14.71 238.8 16.096 240.648 18.868C242.524 21.64 243.462 25.434 243.462 30.25C243.462 35.122 242.524 38.944 240.648 41.716C238.8 44.488 235.804 45.874 231.66 45.874C227.516 45.874 224.506 44.488 222.63 41.716C220.782 38.944 219.858 35.122 219.858 30.25ZM236.406 30.25C236.406 27.422 236.098 25.252 235.482 23.74C234.866 22.2 233.592 21.43 231.66 21.43C229.728 21.43 228.454 22.2 227.838 23.74C227.222 25.252 226.914 27.422 226.914 30.25C226.914 32.154 227.026 33.736 227.25 34.996C227.474 36.228 227.922 37.236 228.594 38.02C229.294 38.776 230.316 39.154 231.66 39.154C233.004 39.154 234.012 38.776 234.684 38.02C235.384 37.236 235.846 36.228 236.07 34.996C236.294 33.736 236.406 32.154 236.406 30.25ZM263.006 46L256.874 34.87H255.152V46H247.97V16.516H260.024C262.348 16.516 264.322 16.922 265.946 17.734C267.598 18.546 268.83 19.666 269.642 21.094C270.454 22.494 270.86 24.062 270.86 25.798C270.86 27.758 270.3 29.508 269.18 31.048C268.088 32.588 266.464 33.68 264.308 34.324L271.112 46H263.006ZM255.152 29.788H259.604C260.92 29.788 261.9 29.466 262.544 28.822C263.216 28.178 263.552 27.268 263.552 26.092C263.552 24.972 263.216 24.09 262.544 23.446C261.9 22.802 260.92 22.48 259.604 22.48H255.152V29.788ZM293.219 30.88C294.927 31.244 296.299 32.098 297.335 33.442C298.371 34.758 298.889 36.27 298.889 37.978C298.889 40.442 298.021 42.402 296.285 43.858C294.577 45.286 292.183 46 289.103 46H275.369V16.516H288.641C291.637 16.516 293.975 17.202 295.655 18.574C297.363 19.946 298.217 21.808 298.217 24.16C298.217 25.896 297.755 27.338 296.831 28.486C295.935 29.634 294.731 30.432 293.219 30.88ZM282.551 28.444H287.255C288.431 28.444 289.327 28.192 289.943 27.688C290.587 27.156 290.909 26.386 290.909 25.378C290.909 24.37 290.587 23.6 289.943 23.068C289.327 22.536 288.431 22.27 287.255 22.27H282.551V28.444ZM287.843 40.204C289.047 40.204 289.971 39.938 290.615 39.406C291.287 38.846 291.623 38.048 291.623 37.012C291.623 35.976 291.273 35.164 290.573 34.576C289.901 33.988 288.963 33.694 287.759 33.694H282.551V40.204H287.843ZM324.348 34.534H317.04V42.01H310.236V34.534H302.928V28.108H310.236V20.59H317.04V28.108H324.348V34.534Z" fill="#FA7436"/>
<path d="M211.168 76.119C210.375 76.119 209.661 75.983 209.026 75.711C208.391 75.4277 207.893 75.031 207.53 74.521C207.167 74.011 206.986 73.416 206.986 72.736H209.06C209.105 73.246 209.304 73.6653 209.655 73.994C210.018 74.3227 210.522 74.487 211.168 74.487C211.837 74.487 212.358 74.3283 212.732 74.011C213.106 73.6823 213.293 73.263 213.293 72.753C213.293 72.3563 213.174 72.0333 212.936 71.784C212.709 71.5347 212.42 71.342 212.069 71.206C211.729 71.07 211.253 70.9227 210.641 70.764C209.87 70.56 209.241 70.356 208.754 70.152C208.278 69.9367 207.87 69.608 207.53 69.166C207.19 68.724 207.02 68.1347 207.02 67.398C207.02 66.718 207.19 66.123 207.53 65.613C207.87 65.103 208.346 64.712 208.958 64.44C209.57 64.168 210.278 64.032 211.083 64.032C212.228 64.032 213.163 64.321 213.888 64.899C214.625 65.4657 215.033 66.2477 215.112 67.245H212.97C212.936 66.8143 212.732 66.446 212.358 66.14C211.984 65.834 211.491 65.681 210.879 65.681C210.324 65.681 209.87 65.8227 209.519 66.106C209.168 66.3893 208.992 66.7973 208.992 67.33C208.992 67.6927 209.1 67.993 209.315 68.231C209.542 68.4577 209.825 68.639 210.165 68.775C210.505 68.911 210.97 69.0583 211.559 69.217C212.341 69.4323 212.976 69.6477 213.463 69.863C213.962 70.0783 214.381 70.4127 214.721 70.866C215.072 71.308 215.248 71.903 215.248 72.651C215.248 73.2517 215.084 73.8183 214.755 74.351C214.438 74.8837 213.967 75.3143 213.344 75.643C212.732 75.9603 212.007 76.119 211.168 76.119ZM218.521 65.392C218.169 65.392 217.875 65.273 217.637 65.035C217.399 64.797 217.28 64.5023 217.28 64.151C217.28 63.7997 217.399 63.505 217.637 63.267C217.875 63.029 218.169 62.91 218.521 62.91C218.861 62.91 219.15 63.029 219.388 63.267C219.626 63.505 219.745 63.7997 219.745 64.151C219.745 64.5023 219.626 64.797 219.388 65.035C219.15 65.273 218.861 65.392 218.521 65.392ZM219.473 66.633V76H217.535V66.633H219.473ZM225.417 76.153C224.681 76.153 224.018 76.0227 223.428 75.762C222.85 75.49 222.391 75.1273 222.051 74.674C221.711 74.2093 221.53 73.6937 221.507 73.127H223.513C223.547 73.5237 223.734 73.858 224.074 74.13C224.426 74.3907 224.862 74.521 225.383 74.521C225.927 74.521 226.347 74.419 226.641 74.215C226.947 73.9997 227.1 73.7277 227.1 73.399C227.1 73.0477 226.93 72.787 226.59 72.617C226.262 72.447 225.735 72.26 225.009 72.056C224.307 71.8633 223.734 71.6763 223.292 71.495C222.85 71.3137 222.465 71.036 222.136 70.662C221.819 70.288 221.66 69.795 221.66 69.183C221.66 68.6843 221.808 68.231 222.102 67.823C222.397 67.4037 222.816 67.075 223.36 66.837C223.916 66.599 224.55 66.48 225.264 66.48C226.33 66.48 227.185 66.752 227.831 67.296C228.489 67.8287 228.84 68.5597 228.885 69.489H226.947C226.913 69.0697 226.743 68.7353 226.437 68.486C226.131 68.2367 225.718 68.112 225.196 68.112C224.686 68.112 224.295 68.2083 224.023 68.401C223.751 68.5937 223.615 68.8487 223.615 69.166C223.615 69.4153 223.706 69.625 223.887 69.795C224.069 69.965 224.29 70.101 224.55 70.203C224.811 70.2937 225.196 70.4127 225.706 70.56C226.386 70.7413 226.942 70.9283 227.372 71.121C227.814 71.3023 228.194 71.5743 228.511 71.937C228.829 72.2997 228.993 72.7813 229.004 73.382C229.004 73.9147 228.857 74.3907 228.562 74.81C228.268 75.2293 227.848 75.558 227.304 75.796C226.772 76.034 226.143 76.153 225.417 76.153ZM243.678 66.633L240.771 76H238.731L236.844 69.081L234.957 76H232.917L229.993 66.633H231.965L233.92 74.164L235.909 66.633H237.932L239.836 74.13L241.774 66.633H243.678ZM244.481 71.274C244.481 70.3333 244.673 69.5003 245.059 68.775C245.455 68.0497 245.988 67.4887 246.657 67.092C247.337 66.684 248.085 66.48 248.901 66.48C249.637 66.48 250.278 66.6273 250.822 66.922C251.377 67.2053 251.819 67.5623 252.148 67.993V66.633H254.103V76H252.148V74.606C251.819 75.048 251.371 75.4163 250.805 75.711C250.238 76.0057 249.592 76.153 248.867 76.153C248.062 76.153 247.325 75.949 246.657 75.541C245.988 75.1217 245.455 74.5437 245.059 73.807C244.673 73.059 244.481 72.2147 244.481 71.274ZM252.148 71.308C252.148 70.662 252.012 70.101 251.74 69.625C251.479 69.149 251.133 68.7863 250.703 68.537C250.272 68.2877 249.807 68.163 249.309 68.163C248.81 68.163 248.345 68.2877 247.915 68.537C247.484 68.775 247.133 69.132 246.861 69.608C246.6 70.0727 246.47 70.628 246.47 71.274C246.47 71.92 246.6 72.4867 246.861 72.974C247.133 73.4613 247.484 73.8353 247.915 74.096C248.357 74.3453 248.821 74.47 249.309 74.47C249.807 74.47 250.272 74.3453 250.703 74.096C251.133 73.8467 251.479 73.484 251.74 73.008C252.012 72.5207 252.148 71.954 252.148 71.308ZM268.697 64.185V65.766H265.552V76H263.614V65.766H260.452V64.185H268.697ZM279.245 71.087C279.245 71.4383 279.222 71.7557 279.177 72.039H272.02C272.076 72.787 272.354 73.3877 272.853 73.841C273.351 74.2943 273.963 74.521 274.689 74.521C275.731 74.521 276.468 74.0847 276.899 73.212H278.99C278.706 74.0733 278.191 74.7817 277.443 75.337C276.706 75.881 275.788 76.153 274.689 76.153C273.793 76.153 272.989 75.9547 272.275 75.558C271.572 75.15 271.017 74.5833 270.609 73.858C270.212 73.1213 270.014 72.2713 270.014 71.308C270.014 70.3447 270.206 69.5003 270.592 68.775C270.988 68.0383 271.538 67.4717 272.241 67.075C272.955 66.6783 273.771 66.48 274.689 66.48C275.573 66.48 276.36 66.6727 277.052 67.058C277.743 67.4433 278.281 67.9873 278.667 68.69C279.052 69.3813 279.245 70.1803 279.245 71.087ZM277.222 70.475C277.21 69.761 276.955 69.1887 276.457 68.758C275.958 68.3273 275.34 68.112 274.604 68.112C273.935 68.112 273.363 68.3273 272.887 68.758C272.411 69.1773 272.127 69.7497 272.037 70.475H277.222ZM283.09 67.993C283.373 67.517 283.747 67.1487 284.212 66.888C284.688 66.616 285.249 66.48 285.895 66.48V68.486H285.402C284.643 68.486 284.065 68.6787 283.668 69.064C283.283 69.4493 283.09 70.118 283.09 71.07V76H281.152V66.633H283.09V67.993ZM287.03 71.274C287.03 70.3333 287.223 69.5003 287.608 68.775C288.005 68.0497 288.538 67.4887 289.206 67.092C289.886 66.684 290.64 66.48 291.467 66.48C292.079 66.48 292.68 66.616 293.269 66.888C293.87 67.1487 294.346 67.5 294.697 67.942V63.42H296.652V76H294.697V74.589C294.38 75.0423 293.938 75.4163 293.371 75.711C292.816 76.0057 292.176 76.153 291.45 76.153C290.634 76.153 289.886 75.949 289.206 75.541C288.538 75.1217 288.005 74.5437 287.608 73.807C287.223 73.059 287.03 72.2147 287.03 71.274ZM294.697 71.308C294.697 70.662 294.561 70.101 294.289 69.625C294.029 69.149 293.683 68.7863 293.252 68.537C292.822 68.2877 292.357 68.163 291.858 68.163C291.36 68.163 290.895 68.2877 290.464 68.537C290.034 68.775 289.682 69.132 289.41 69.608C289.15 70.0727 289.019 70.628 289.019 71.274C289.019 71.92 289.15 72.4867 289.41 72.974C289.682 73.4613 290.034 73.8353 290.464 74.096C290.906 74.3453 291.371 74.47 291.858 74.47C292.357 74.47 292.822 74.3453 293.252 74.096C293.683 73.8467 294.029 73.484 294.289 73.008C294.561 72.5207 294.697 71.954 294.697 71.308ZM298.552 71.274C298.552 70.3333 298.745 69.5003 299.13 68.775C299.527 68.0497 300.059 67.4887 300.728 67.092C301.408 66.684 302.156 66.48 302.972 66.48C303.709 66.48 304.349 66.6273 304.893 66.922C305.448 67.2053 305.89 67.5623 306.219 67.993V66.633H308.174V76H306.219V74.606C305.89 75.048 305.443 75.4163 304.876 75.711C304.309 76.0057 303.663 76.153 302.938 76.153C302.133 76.153 301.397 75.949 300.728 75.541C300.059 75.1217 299.527 74.5437 299.13 73.807C298.745 73.059 298.552 72.2147 298.552 71.274ZM306.219 71.308C306.219 70.662 306.083 70.101 305.811 69.625C305.55 69.149 305.205 68.7863 304.774 68.537C304.343 68.2877 303.879 68.163 303.38 68.163C302.881 68.163 302.417 68.2877 301.986 68.537C301.555 68.775 301.204 69.132 300.932 69.608C300.671 70.0727 300.541 70.628 300.541 71.274C300.541 71.92 300.671 72.4867 300.932 72.974C301.204 73.4613 301.555 73.8353 301.986 74.096C302.428 74.3453 302.893 74.47 303.38 74.47C303.879 74.47 304.343 74.3453 304.774 74.096C305.205 73.8467 305.55 73.484 305.811 73.008C306.083 72.5207 306.219 71.954 306.219 71.308ZM314.646 68.214H312.912V76H310.957V68.214H309.852V66.633H310.957V65.97C310.957 64.8933 311.241 64.1113 311.807 63.624C312.385 63.1253 313.286 62.876 314.51 62.876V64.491C313.921 64.491 313.507 64.6043 313.269 64.831C313.031 65.0463 312.912 65.426 312.912 65.97V66.633H314.646V68.214ZM318.625 68.214V73.399C318.625 73.7503 318.704 74.0053 318.863 74.164C319.033 74.3113 319.316 74.385 319.713 74.385H320.903V76H319.373C318.5 76 317.832 75.796 317.367 75.388C316.902 74.98 316.67 74.317 316.67 73.399V68.214H315.565V66.633H316.67V64.304H318.625V66.633H320.903V68.214H318.625ZM322.043 71.274C322.043 70.3333 322.236 69.5003 322.621 68.775C323.018 68.0497 323.55 67.4887 324.219 67.092C324.899 66.684 325.647 66.48 326.463 66.48C327.2 66.48 327.84 66.6273 328.384 66.922C328.939 67.2053 329.381 67.5623 329.71 67.993V66.633H331.665V76H329.71V74.606C329.381 75.048 328.934 75.4163 328.367 75.711C327.8 76.0057 327.154 76.153 326.429 76.153C325.624 76.153 324.888 75.949 324.219 75.541C323.55 75.1217 323.018 74.5437 322.621 73.807C322.236 73.059 322.043 72.2147 322.043 71.274ZM329.71 71.308C329.71 70.662 329.574 70.101 329.302 69.625C329.041 69.149 328.696 68.7863 328.265 68.537C327.834 68.2877 327.37 68.163 326.871 68.163C326.372 68.163 325.908 68.2877 325.477 68.537C325.046 68.775 324.695 69.132 324.423 69.608C324.162 70.0727 324.032 70.628 324.032 71.274C324.032 71.92 324.162 72.4867 324.423 72.974C324.695 73.4613 325.046 73.8353 325.477 74.096C325.919 74.3453 326.384 74.47 326.871 74.47C327.37 74.47 327.834 74.3453 328.265 74.096C328.696 73.8467 329.041 73.484 329.302 73.008C329.574 72.5207 329.71 71.954 329.71 71.308ZM336.149 67.993C336.432 67.517 336.806 67.1487 337.271 66.888C337.747 66.616 338.308 66.48 338.954 66.48V68.486H338.461C337.701 68.486 337.123 68.6787 336.727 69.064C336.341 69.4493 336.149 70.118 336.149 71.07V76H334.211V66.633H336.149V67.993Z" fill="black"/>
<path d="M453.34 22.018V15.34H464.974V46H457.498V22.018H453.34ZM469.887 30.25C469.887 25.434 470.811 21.64 472.659 18.868C474.535 16.096 477.545 14.71 481.689 14.71C485.833 14.71 488.829 16.096 490.677 18.868C492.553 21.64 493.491 25.434 493.491 30.25C493.491 35.122 492.553 38.944 490.677 41.716C488.829 44.488 485.833 45.874 481.689 45.874C477.545 45.874 474.535 44.488 472.659 41.716C470.811 38.944 469.887 35.122 469.887 30.25ZM486.435 30.25C486.435 27.422 486.127 25.252 485.511 23.74C484.895 22.2 483.621 21.43 481.689 21.43C479.757 21.43 478.483 22.2 477.867 23.74C477.251 25.252 476.943 27.422 476.943 30.25C476.943 32.154 477.055 33.736 477.279 34.996C477.503 36.228 477.951 37.236 478.623 38.02C479.323 38.776 480.345 39.154 481.689 39.154C483.033 39.154 484.041 38.776 484.713 38.02C485.413 37.236 485.875 36.228 486.099 34.996C486.323 33.736 486.435 32.154 486.435 30.25ZM497.286 30.25C497.286 25.434 498.21 21.64 500.058 18.868C501.934 16.096 504.944 14.71 509.088 14.71C513.232 14.71 516.228 16.096 518.076 18.868C519.952 21.64 520.89 25.434 520.89 30.25C520.89 35.122 519.952 38.944 518.076 41.716C516.228 44.488 513.232 45.874 509.088 45.874C504.944 45.874 501.934 44.488 500.058 41.716C498.21 38.944 497.286 35.122 497.286 30.25ZM513.834 30.25C513.834 27.422 513.526 25.252 512.91 23.74C512.294 22.2 511.02 21.43 509.088 21.43C507.156 21.43 505.882 22.2 505.266 23.74C504.65 25.252 504.342 27.422 504.342 30.25C504.342 32.154 504.454 33.736 504.678 34.996C504.902 36.228 505.35 37.236 506.022 38.02C506.722 38.776 507.744 39.154 509.088 39.154C510.432 39.154 511.44 38.776 512.112 38.02C512.812 37.236 513.274 36.228 513.498 34.996C513.722 33.736 513.834 32.154 513.834 30.25Z" fill="#FA7436"/>
<path d="M462.982 76H461.044L455.213 67.177V76H453.275V64.168H455.213L461.044 72.974V64.168H462.982V76ZM474.112 71.087C474.112 71.4383 474.089 71.7557 474.044 72.039H466.887C466.944 72.787 467.221 73.3877 467.72 73.841C468.219 74.2943 468.831 74.521 469.556 74.521C470.599 74.521 471.335 74.0847 471.766 73.212H473.857C473.574 74.0733 473.058 74.7817 472.31 75.337C471.573 75.881 470.655 76.153 469.556 76.153C468.661 76.153 467.856 75.9547 467.142 75.558C466.439 75.15 465.884 74.5833 465.476 73.858C465.079 73.1213 464.881 72.2713 464.881 71.308C464.881 70.3447 465.074 69.5003 465.459 68.775C465.856 68.0383 466.405 67.4717 467.108 67.075C467.822 66.6783 468.638 66.48 469.556 66.48C470.44 66.48 471.228 66.6727 471.919 67.058C472.61 67.4433 473.149 67.9873 473.534 68.69C473.919 69.3813 474.112 70.1803 474.112 71.087ZM472.089 70.475C472.078 69.761 471.823 69.1887 471.324 68.758C470.825 68.3273 470.208 68.112 469.471 68.112C468.802 68.112 468.23 68.3273 467.754 68.758C467.278 69.1773 466.995 69.7497 466.904 70.475H472.089ZM479.793 66.48C480.518 66.48 481.159 66.6273 481.714 66.922C482.281 67.2053 482.723 67.5623 483.04 67.993V66.633H484.995V76.153C484.995 77.0143 484.814 77.7793 484.451 78.448C484.088 79.128 483.561 79.6607 482.87 80.046C482.19 80.4313 481.374 80.624 480.422 80.624C479.153 80.624 478.099 80.3237 477.26 79.723C476.421 79.1337 475.945 78.329 475.832 77.309H477.753C477.9 77.7963 478.212 78.1873 478.688 78.482C479.175 78.788 479.753 78.941 480.422 78.941C481.204 78.941 481.833 78.703 482.309 78.227C482.796 77.751 483.04 77.0597 483.04 76.153V74.589C482.711 75.031 482.264 75.405 481.697 75.711C481.142 76.0057 480.507 76.153 479.793 76.153C478.977 76.153 478.229 75.949 477.549 75.541C476.88 75.1217 476.348 74.5437 475.951 73.807C475.566 73.059 475.373 72.2147 475.373 71.274C475.373 70.3333 475.566 69.5003 475.951 68.775C476.348 68.0497 476.88 67.4887 477.549 67.092C478.229 66.684 478.977 66.48 479.793 66.48ZM483.04 71.308C483.04 70.662 482.904 70.101 482.632 69.625C482.371 69.149 482.026 68.7863 481.595 68.537C481.164 68.2877 480.7 68.163 480.201 68.163C479.702 68.163 479.238 68.2877 478.807 68.537C478.376 68.775 478.025 69.132 477.753 69.608C477.492 70.0727 477.362 70.628 477.362 71.274C477.362 71.92 477.492 72.4867 477.753 72.974C478.025 73.4613 478.376 73.8353 478.807 74.096C479.249 74.3453 479.714 74.47 480.201 74.47C480.7 74.47 481.164 74.3453 481.595 74.096C482.026 73.8467 482.371 73.484 482.632 73.008C482.904 72.5207 483.04 71.954 483.04 71.308ZM486.895 71.274C486.895 70.3333 487.087 69.5003 487.473 68.775C487.869 68.0497 488.402 67.4887 489.071 67.092C489.751 66.684 490.499 66.48 491.315 66.48C492.051 66.48 492.692 66.6273 493.236 66.922C493.791 67.2053 494.233 67.5623 494.562 67.993V66.633H496.517V76H494.562V74.606C494.233 75.048 493.785 75.4163 493.219 75.711C492.652 76.0057 492.006 76.153 491.281 76.153C490.476 76.153 489.739 75.949 489.071 75.541C488.402 75.1217 487.869 74.5437 487.473 73.807C487.087 73.059 486.895 72.2147 486.895 71.274ZM494.562 71.308C494.562 70.662 494.426 70.101 494.154 69.625C493.893 69.149 493.547 68.7863 493.117 68.537C492.686 68.2877 492.221 68.163 491.723 68.163C491.224 68.163 490.759 68.2877 490.329 68.537C489.898 68.775 489.547 69.132 489.275 69.608C489.014 70.0727 488.884 70.628 488.884 71.274C488.884 71.92 489.014 72.4867 489.275 72.974C489.547 73.4613 489.898 73.8353 490.329 74.096C490.771 74.3453 491.235 74.47 491.723 74.47C492.221 74.47 492.686 74.3453 493.117 74.096C493.547 73.8467 493.893 73.484 494.154 73.008C494.426 72.5207 494.562 71.954 494.562 71.308ZM501 67.993C501.283 67.517 501.657 67.1487 502.122 66.888C502.598 66.616 503.159 66.48 503.805 66.48V68.486H503.312C502.553 68.486 501.975 68.6787 501.578 69.064C501.193 69.4493 501 70.118 501 71.07V76H499.062V66.633H501V67.993ZM504.941 71.274C504.941 70.3333 505.133 69.5003 505.519 68.775C505.915 68.0497 506.448 67.4887 507.117 67.092C507.797 66.684 508.545 66.48 509.361 66.48C510.097 66.48 510.738 66.6273 511.282 66.922C511.837 67.2053 512.279 67.5623 512.608 67.993V66.633H514.563V76H512.608V74.606C512.279 75.048 511.831 75.4163 511.265 75.711C510.698 76.0057 510.052 76.153 509.327 76.153C508.522 76.153 507.785 75.949 507.117 75.541C506.448 75.1217 505.915 74.5437 505.519 73.807C505.133 73.059 504.941 72.2147 504.941 71.274ZM512.608 71.308C512.608 70.662 512.472 70.101 512.2 69.625C511.939 69.149 511.593 68.7863 511.163 68.537C510.732 68.2877 510.267 68.163 509.769 68.163C509.27 68.163 508.805 68.2877 508.375 68.537C507.944 68.775 507.593 69.132 507.321 69.608C507.06 70.0727 506.93 70.628 506.93 71.274C506.93 71.92 507.06 72.4867 507.321 72.974C507.593 73.4613 507.944 73.8353 508.375 74.096C508.817 74.3453 509.281 74.47 509.769 74.47C510.267 74.47 510.732 74.3453 511.163 74.096C511.593 73.8467 511.939 73.484 512.2 73.008C512.472 72.5207 512.608 71.954 512.608 71.308Z" fill="black"/>
</svg>
