<svg width="380" height="38" viewBox="0 0 380 38" fill="none" xmlns="http://www.w3.org/2000/svg">
<rect x="1" y="1" width="378" height="35.9703" rx="9" stroke="#F7AD19" stroke-width="2"/>
<path d="M149.704 15.6623V17.4703H146.728V26.8303H144.488V17.4703H141.512V15.6623H149.704ZM150.762 22.3663C150.762 21.4703 150.938 20.6757 151.29 19.9823C151.653 19.289 152.138 18.7557 152.746 18.3823C153.365 18.009 154.053 17.8223 154.81 17.8223C155.472 17.8223 156.048 17.9557 156.538 18.2223C157.04 18.489 157.44 18.825 157.738 19.2303V17.9663H159.994V26.8303H157.738V25.5343C157.45 25.9503 157.05 26.297 156.538 26.5743C156.037 26.841 155.456 26.9743 154.794 26.9743C154.048 26.9743 153.365 26.7823 152.746 26.3983C152.138 26.0143 151.653 25.4757 151.29 24.7823C150.938 24.0783 150.762 23.273 150.762 22.3663ZM157.738 22.3983C157.738 21.8543 157.632 21.3903 157.418 21.0063C157.205 20.6117 156.917 20.313 156.554 20.1103C156.192 19.897 155.802 19.7903 155.386 19.7903C154.97 19.7903 154.586 19.8917 154.234 20.0943C153.882 20.297 153.594 20.5957 153.37 20.9903C153.157 21.3743 153.05 21.833 153.05 22.3663C153.05 22.8997 153.157 23.369 153.37 23.7743C153.594 24.169 153.882 24.473 154.234 24.6863C154.597 24.8997 154.981 25.0063 155.386 25.0063C155.802 25.0063 156.192 24.905 156.554 24.7023C156.917 24.489 157.205 24.1903 157.418 23.8063C157.632 23.4117 157.738 22.9423 157.738 22.3983ZM167.094 17.8383C168.15 17.8383 169.003 18.1743 169.654 18.8463C170.305 19.5077 170.63 20.4357 170.63 21.6303V26.8303H168.39V21.9343C168.39 21.2303 168.214 20.6917 167.862 20.3183C167.51 19.9343 167.03 19.7423 166.422 19.7423C165.803 19.7423 165.313 19.9343 164.95 20.3183C164.598 20.6917 164.422 21.2303 164.422 21.9343V26.8303H162.182V17.9663H164.422V19.0703C164.721 18.6863 165.099 18.3877 165.558 18.1743C166.027 17.9503 166.539 17.8383 167.094 17.8383ZM181.24 17.9663L175.752 31.0223H173.368L175.288 26.6063L171.736 17.9663H174.248L176.536 24.1583L178.856 17.9663H181.24ZM181.872 22.3663C181.872 21.4703 182.048 20.6757 182.4 19.9823C182.762 19.289 183.248 18.7557 183.856 18.3823C184.474 18.009 185.162 17.8223 185.92 17.8223C186.581 17.8223 187.157 17.9557 187.648 18.2223C188.149 18.489 188.549 18.825 188.848 19.2303V17.9663H191.104V26.8303H188.848V25.5343C188.56 25.9503 188.16 26.297 187.648 26.5743C187.146 26.841 186.565 26.9743 185.904 26.9743C185.157 26.9743 184.474 26.7823 183.856 26.3983C183.248 26.0143 182.762 25.4757 182.4 24.7823C182.048 24.0783 181.872 23.273 181.872 22.3663ZM188.848 22.3983C188.848 21.8543 188.741 21.3903 188.528 21.0063C188.314 20.6117 188.026 20.313 187.664 20.1103C187.301 19.897 186.912 19.7903 186.496 19.7903C186.08 19.7903 185.696 19.8917 185.344 20.0943C184.992 20.297 184.704 20.5957 184.48 20.9903C184.266 21.3743 184.16 21.833 184.16 22.3663C184.16 22.8997 184.266 23.369 184.48 23.7743C184.704 24.169 184.992 24.473 185.344 24.6863C185.706 24.8997 186.09 25.0063 186.496 25.0063C186.912 25.0063 187.301 24.905 187.664 24.7023C188.026 24.489 188.314 24.1903 188.528 23.8063C188.741 23.4117 188.848 22.9423 188.848 22.3983ZM203.408 26.8303L199.344 21.8543V26.8303H197.104V15.6623H199.344V20.6703L203.408 15.6623H206.112L201.504 21.1983L206.24 26.8303H203.408ZM207.137 22.3663C207.137 21.4703 207.313 20.6757 207.665 19.9823C208.028 19.289 208.513 18.7557 209.121 18.3823C209.74 18.009 210.428 17.8223 211.185 17.8223C211.847 17.8223 212.423 17.9557 212.913 18.2223C213.415 18.489 213.815 18.825 214.113 19.2303V17.9663H216.369V26.8303H214.113V25.5343C213.825 25.9503 213.425 26.297 212.913 26.5743C212.412 26.841 211.831 26.9743 211.169 26.9743C210.423 26.9743 209.74 26.7823 209.121 26.3983C208.513 26.0143 208.028 25.4757 207.665 24.7823C207.313 24.0783 207.137 23.273 207.137 22.3663ZM214.113 22.3983C214.113 21.8543 214.007 21.3903 213.793 21.0063C213.58 20.6117 213.292 20.313 212.929 20.1103C212.567 19.897 212.177 19.7903 211.761 19.7903C211.345 19.7903 210.961 19.8917 210.609 20.0943C210.257 20.297 209.969 20.5957 209.745 20.9903C209.532 21.3743 209.425 21.833 209.425 22.3663C209.425 22.8997 209.532 23.369 209.745 23.7743C209.969 24.169 210.257 24.473 210.609 24.6863C210.972 24.8997 211.356 25.0063 211.761 25.0063C212.177 25.0063 212.567 24.905 212.929 24.7023C213.292 24.489 213.58 24.1903 213.793 23.8063C214.007 23.4117 214.113 22.9423 214.113 22.3983ZM229.565 17.8383C230.653 17.8383 231.528 18.1743 232.189 18.8463C232.861 19.5077 233.197 20.4357 233.197 21.6303V26.8303H230.957V21.9343C230.957 21.241 230.781 20.713 230.429 20.3503C230.077 19.977 229.597 19.7903 228.989 19.7903C228.381 19.7903 227.896 19.977 227.533 20.3503C227.181 20.713 227.005 21.241 227.005 21.9343V26.8303H224.765V21.9343C224.765 21.241 224.589 20.713 224.237 20.3503C223.885 19.977 223.405 19.7903 222.797 19.7903C222.178 19.7903 221.688 19.977 221.325 20.3503C220.973 20.713 220.797 21.241 220.797 21.9343V26.8303H218.557V17.9663H220.797V19.0383C221.085 18.665 221.453 18.3717 221.901 18.1583C222.36 17.945 222.861 17.8383 223.405 17.8383C224.098 17.8383 224.717 17.9877 225.261 18.2863C225.805 18.5743 226.226 18.9903 226.525 19.5343C226.813 19.0223 227.229 18.6117 227.773 18.3023C228.328 17.993 228.925 17.8383 229.565 17.8383ZM236.459 16.9103C236.064 16.9103 235.733 16.7877 235.467 16.5423C235.211 16.2863 235.083 15.9717 235.083 15.5983C235.083 15.225 235.211 14.9157 235.467 14.6703C235.733 14.4143 236.064 14.2863 236.459 14.2863C236.853 14.2863 237.179 14.4143 237.435 14.6703C237.701 14.9157 237.835 15.225 237.835 15.5983C237.835 15.9717 237.701 16.2863 237.435 16.5423C237.179 16.7877 236.853 16.9103 236.459 16.9103ZM237.563 17.9663V26.8303H235.323V17.9663H237.563Z" fill="#F7AD19"/>
</svg>
