<svg width="30" height="30" viewBox="0 0 30 30" fill="none" xmlns="http://www.w3.org/2000/svg">
<g clip-path="url(#clip0_118_394)">
<path d="M26.6667 4.16669H3.33333C2.44928 4.16669 1.60143 4.51788 0.976311 5.143C0.35119 5.76812 0 6.61597 0 7.50002L0 15H30V7.50002C30 6.61597 29.6488 5.76812 29.0237 5.143C28.3986 4.51788 27.5507 4.16669 26.6667 4.16669Z" fill="#DC1F26"/>
<path d="M30 22.5C30 23.3841 29.6488 24.2319 29.0237 24.857C28.3986 25.4821 27.5507 25.8333 26.6667 25.8333H3.33333C2.44928 25.8333 1.60143 25.4821 0.976311 24.857C0.35119 24.2319 0 23.3841 0 22.5V15H30V22.5Z" fill="white"/>
</g>
<defs>
<clipPath id="clip0_118_394">
<rect width="30" height="30" fill="white"/>
</clipPath>
</defs>
</svg>
