<svg width="30" height="22" viewBox="0 0 30 22" fill="none" xmlns="http://www.w3.org/2000/svg">
<path d="M0 3.38331V6.66748H4.69L0 3.38331Z" fill="#226699"/>
<path d="M3.88672 21.6666H10.8334V16.8025L3.88672 21.6666Z" fill="#226699"/>
<path d="M19.167 16.8033V21.6666H26.1128L19.167 16.8033Z" fill="#226699"/>
<path d="M0 15V18.2841L4.69167 15H0Z" fill="#226699"/>
<path d="M26.1145 -3.09944e-05H19.167V4.86414L26.1145 -3.09944e-05Z" fill="#226699"/>
<path d="M30.0001 18.285V15H25.3076L30.0001 18.285Z" fill="#226699"/>
<path d="M30.0004 6.66663V3.38246L25.3096 6.66663H30.0004Z" fill="#226699"/>
<path d="M10.8334 -3.09944e-05H3.88672L10.8334 4.86414V-3.09944e-05Z" fill="#226699"/>
<path d="M20.9502 15L29.0435 20.6675C29.436 20.2675 29.7169 19.7658 29.8685 19.21L23.856 15H20.9502Z" fill="#DD2E44"/>
<path d="M10.8327 15H9.04856L0.956055 20.6666C1.39022 21.1083 1.94689 21.4241 2.57106 21.5708L10.8327 15.7858V15Z" fill="#DD2E44"/>
<path d="M19.167 6.66663H20.9512L29.0437 0.999959C28.6095 0.558292 28.0528 0.242459 27.4295 0.0957923L19.167 5.88079V6.66663Z" fill="#DD2E44"/>
<path d="M9.04919 6.66663L0.956692 0.999959C0.564192 1.39996 0.283359 1.90163 0.130859 2.45746L6.14336 6.66663H9.04919Z" fill="#DD2E44"/>
<path d="M30 13.3333H17.5V21.6666H19.1667V16.8033L26.1125 21.6666H26.6667C27.5975 21.6666 28.4383 21.2825 29.0433 20.6675L20.95 15H23.8558L29.8683 19.21C29.9458 18.9291 30 18.6383 30 18.3333V18.285L25.3075 15H30V13.3333Z" fill="white"/>
<path d="M0 13.3333V15H4.69167L0 18.2841V18.3333C0 19.2425 0.365833 20.065 0.956667 20.6666L9.04917 15H10.8333V15.7858L2.57167 21.5708C2.81667 21.6283 3.07 21.6666 3.33333 21.6666H3.88667L10.8333 16.8025V21.6666H12.5V13.3333H0Z" fill="white"/>
<path d="M30 3.33331C30 2.42415 29.6342 1.60165 29.0433 0.999979L20.9508 6.66665H19.1667V5.88081L27.4292 0.0958128C27.1833 0.0383129 26.93 -2.00272e-05 26.6667 -2.00272e-05H26.1142L19.1667 4.86415V-2.00272e-05H17.5V8.33331H30V6.66665H25.3092L30 3.38248V3.33331Z" fill="white"/>
<path d="M10.8333 -2.00272e-05V4.86415L3.88667 -2.00272e-05H3.33333C2.40167 -2.00272e-05 1.56167 0.384146 0.956666 0.999979L9.04917 6.66665H6.14333L0.130833 2.45748C0.0541663 2.73831 0 3.02831 0 3.33331V3.38248L4.69 6.66665H0V8.33331H12.5V-2.00272e-05H10.8333Z" fill="white"/>
<path d="M17.5 8.33329V-4.00543e-05H12.5V8.33329H0V10.8333V13.3333H12.5V21.6666H17.5V13.3333H30V10.8333V8.33329H17.5Z" fill="#DD2E44"/>
</svg>
