<svg width="114" height="25" viewBox="0 0 114 25" fill="none" xmlns="http://www.w3.org/2000/svg">
<path d="M2.64 1.98H19.32C19.96 1.98 20.43 2.06 20.73 2.22C21.03 2.36 21.23 2.59 21.33 2.91C21.43 3.23 21.48 3.65 21.48 4.17C21.48 4.69 21.43 5.11 21.33 5.43C21.23 5.73 21.06 5.94 20.82 6.06C20.46 6.24 19.95 6.33 19.29 6.33H13.56V21.42C13.56 21.88 13.54 22.22 13.5 22.44C13.48 22.66 13.39 22.92 13.23 23.22C13.09 23.5 12.83 23.7 12.45 23.82C12.07 23.94 11.57 24 10.95 24C10.33 24 9.83 23.94 9.45 23.82C9.09 23.7 8.83 23.5 8.67 23.22C8.53 22.92 8.44 22.66 8.4 22.44C8.38 22.2 8.37 21.85 8.37 21.39V6.33H2.61C1.97 6.33 1.5 6.26 1.2 6.12C0.9 5.96 0.7 5.72 0.6 5.4C0.5 5.08 0.45 4.66 0.45 4.14C0.45 3.62 0.5 3.21 0.6 2.91C0.7 2.59 0.87 2.37 1.11 2.25C1.47 2.07 1.98 1.98 2.64 1.98ZM30.2798 8.37C30.6598 8.49 30.9698 8.7 31.2098 9C31.4698 9.28 31.5998 9.74 31.5998 10.38C31.5998 11.02 31.4098 11.72 31.0298 12.48C30.6498 13.24 30.0998 13.62 29.3798 13.62C29.0198 13.62 28.6698 13.54 28.3298 13.38C28.0098 13.22 27.5798 13.14 27.0398 13.14C26.4998 13.14 25.9898 13.33 25.5098 13.71C25.0498 14.09 24.8198 14.55 24.8198 15.09V21.39C24.8198 21.85 24.7998 22.2 24.7598 22.44C24.7398 22.66 24.6498 22.92 24.4898 23.22C24.1898 23.74 23.4098 24 22.1498 24C21.1898 24 20.4998 23.83 20.0798 23.49C19.7598 23.21 19.5798 22.78 19.5398 22.2C19.5398 22 19.5398 21.71 19.5398 21.33V10.8C19.5398 10.34 19.5498 10 19.5698 9.78C19.6098 9.54 19.6998 9.28 19.8398 9C20.1198 8.46 20.8998 8.19 22.1798 8.19C23.3798 8.19 24.1298 8.42 24.4298 8.88C24.6498 9.2 24.7598 9.53 24.7598 9.87C24.8598 9.73 24.9998 9.56 25.1798 9.36C25.3798 9.16 25.7898 8.89 26.4098 8.55C27.0298 8.21 27.5698 8.04 28.0298 8.04C28.5098 8.04 28.9098 8.07 29.2298 8.13C29.5498 8.17 29.8998 8.25 30.2798 8.37ZM42.6026 9.87C42.7226 8.75 43.5126 8.19 44.9726 8.19C45.7526 8.19 46.3326 8.25 46.7126 8.37C47.0926 8.49 47.3526 8.7 47.4926 9C47.6526 9.3 47.7426 9.57 47.7626 9.81C47.8026 10.03 47.8226 10.37 47.8226 10.83V21.33C47.8226 21.79 47.8026 22.14 47.7626 22.38C47.7426 22.6 47.6626 22.86 47.5226 23.16C47.2426 23.68 46.5526 23.94 45.4526 23.94C44.3726 23.94 43.6426 23.81 43.2626 23.55C42.9026 23.27 42.6926 22.87 42.6326 22.35C41.8926 23.41 40.6526 23.94 38.9126 23.94C37.1926 23.94 35.5926 23.15 34.1126 21.57C32.6326 19.99 31.8926 18.16 31.8926 16.08C31.8926 13.98 32.6326 12.15 34.1126 10.59C35.6126 9.01 37.2526 8.22 39.0326 8.22C39.7126 8.22 40.3326 8.34 40.8926 8.58C41.4526 8.82 41.8426 9.05 42.0626 9.27C42.2826 9.47 42.4626 9.67 42.6026 9.87ZM37.1426 16.11C37.1426 16.77 37.4026 17.37 37.9226 17.91C38.4426 18.43 39.0726 18.69 39.8126 18.69C40.5526 18.69 41.1626 18.42 41.6426 17.88C42.1426 17.34 42.3926 16.75 42.3926 16.11C42.3926 15.45 42.1526 14.84 41.6726 14.28C41.2126 13.72 40.5826 13.44 39.7826 13.44C39.0026 13.44 38.3626 13.72 37.8626 14.28C37.3826 14.84 37.1426 15.45 37.1426 16.11ZM50.2137 10.83C50.2137 10.37 50.2237 10.03 50.2437 9.81C50.2837 9.57 50.3737 9.3 50.5137 9C50.7937 8.48 51.5737 8.22 52.8537 8.22C53.8137 8.22 54.4937 8.39 54.8937 8.73C55.2337 9.01 55.4137 9.44 55.4337 10.02C55.4537 10.22 55.4637 10.51 55.4637 10.89V21.39C55.4637 21.85 55.4437 22.2 55.4037 22.44C55.3837 22.66 55.2937 22.92 55.1337 23.22C54.8737 23.74 54.1037 24 52.8237 24C51.5637 24 50.7937 23.73 50.5137 23.19C50.3737 22.89 50.2837 22.63 50.2437 22.41C50.2237 22.19 50.2137 21.84 50.2137 21.36V10.83ZM55.1337 5.28C54.9937 5.56 54.7337 5.76 54.3537 5.88C53.9737 6 53.4637 6.06 52.8237 6.06C52.2037 6.06 51.7037 6 51.3237 5.88C50.9437 5.76 50.6737 5.55 50.5137 5.25C50.3737 4.95 50.2837 4.69 50.2437 4.47C50.2237 4.23 50.2137 3.88 50.2137 3.42C50.2137 2.96 50.2237 2.62 50.2437 2.4C50.2837 2.16 50.3737 1.9 50.5137 1.62C50.7937 1.08 51.5737 0.809998 52.8537 0.809998C54.1137 0.809998 54.8737 1.08 55.1337 1.62C55.2937 1.92 55.3837 2.19 55.4037 2.43C55.4437 2.65 55.4637 2.99 55.4637 3.45C55.4637 3.91 55.4437 4.26 55.4037 4.5C55.3837 4.72 55.2937 4.98 55.1337 5.28ZM66.6502 8.19C68.6502 8.19 70.3102 8.96 71.6302 10.5C72.9702 12.02 73.6402 13.88 73.6402 16.08V21.36C73.6402 21.82 73.6202 22.17 73.5802 22.41C73.5602 22.63 73.4802 22.88 73.3402 23.16C73.0602 23.7 72.2802 23.97 71.0002 23.97C69.5802 23.97 68.7602 23.6 68.5402 22.86C68.4202 22.52 68.3602 22.01 68.3602 21.33V16.05C68.3602 15.23 68.1202 14.59 67.6402 14.13C67.1802 13.67 66.5502 13.44 65.7502 13.44C64.9702 13.44 64.3302 13.68 63.8302 14.16C63.3502 14.64 63.1102 15.27 63.1102 16.05V21.36C63.1102 21.82 63.0902 22.17 63.0502 22.41C63.0302 22.63 62.9402 22.88 62.7802 23.16C62.5202 23.7 61.7502 23.97 60.4702 23.97C59.2102 23.97 58.4402 23.7 58.1602 23.16C58.0202 22.86 57.9302 22.6 57.8902 22.38C57.8702 22.14 57.8602 21.79 57.8602 21.33V10.71C57.8602 10.27 57.8702 9.94 57.8902 9.72C57.9302 9.48 58.0302 9.22 58.1902 8.94C58.4702 8.44 59.2402 8.19 60.5002 8.19C61.7202 8.19 62.4702 8.42 62.7502 8.88C62.9502 9.22 63.0502 9.63 63.0502 10.11C63.1302 9.97 63.3102 9.77 63.5902 9.51C63.8702 9.25 64.1402 9.04 64.4002 8.88C65.0802 8.42 65.8302 8.19 66.6502 8.19ZM76.0535 10.83C76.0535 10.37 76.0635 10.03 76.0835 9.81C76.1235 9.57 76.2135 9.3 76.3535 9C76.6335 8.48 77.4135 8.22 78.6935 8.22C79.6535 8.22 80.3335 8.39 80.7335 8.73C81.0735 9.01 81.2535 9.44 81.2735 10.02C81.2935 10.22 81.3035 10.51 81.3035 10.89V21.39C81.3035 21.85 81.2835 22.2 81.2435 22.44C81.2235 22.66 81.1335 22.92 80.9735 23.22C80.7135 23.74 79.9435 24 78.6635 24C77.4035 24 76.6335 23.73 76.3535 23.19C76.2135 22.89 76.1235 22.63 76.0835 22.41C76.0635 22.19 76.0535 21.84 76.0535 21.36V10.83ZM80.9735 5.28C80.8335 5.56 80.5735 5.76 80.1935 5.88C79.8135 6 79.3035 6.06 78.6635 6.06C78.0435 6.06 77.5435 6 77.1635 5.88C76.7835 5.76 76.5135 5.55 76.3535 5.25C76.2135 4.95 76.1235 4.69 76.0835 4.47C76.0635 4.23 76.0535 3.88 76.0535 3.42C76.0535 2.96 76.0635 2.62 76.0835 2.4C76.1235 2.16 76.2135 1.9 76.3535 1.62C76.6335 1.08 77.4135 0.809998 78.6935 0.809998C79.9535 0.809998 80.7135 1.08 80.9735 1.62C81.1335 1.92 81.2235 2.19 81.2435 2.43C81.2835 2.65 81.3035 2.99 81.3035 3.45C81.3035 3.91 81.2835 4.26 81.2435 4.5C81.2235 4.72 81.1335 4.98 80.9735 5.28ZM88.65 16.11C88.65 16.95 88.93 17.61 89.49 18.09C90.05 18.55 90.64 18.78 91.26 18.78C91.9 18.78 92.49 18.6 93.03 18.24C93.59 17.86 94.04 17.67 94.38 17.67C94.98 17.67 95.71 18.2 96.57 19.26C97.03 19.84 97.26 20.36 97.26 20.82C97.26 21.58 96.71 22.29 95.61 22.95C94.47 23.75 93.07 24.15 91.41 24.15C89.55 24.15 87.76 23.48 86.04 22.14C85.22 21.5 84.55 20.65 84.03 19.59C83.51 18.51 83.25 17.33 83.25 16.05C83.25 14.75 83.51 13.58 84.03 12.54C84.55 11.48 85.22 10.63 86.04 9.99C87.7 8.67 89.47 8.01 91.35 8.01C92.11 8.01 92.85 8.12 93.57 8.34C94.29 8.54 94.82 8.74 95.16 8.94L95.64 9.24C96 9.48 96.28 9.67 96.48 9.81C97 10.21 97.26 10.67 97.26 11.19C97.26 11.69 97.05 12.26 96.63 12.9C95.91 14 95.22 14.55 94.56 14.55C94.18 14.55 93.64 14.33 92.94 13.89C92.58 13.55 92.06 13.38 91.38 13.38C90.72 13.38 90.1 13.62 89.52 14.1C88.94 14.58 88.65 15.25 88.65 16.11ZM113.999 14.22C113.999 15.44 113.689 16.35 113.069 16.95C112.469 17.53 111.799 17.82 111.059 17.82H103.949C103.949 18.38 104.279 18.85 104.939 19.23C105.599 19.61 106.259 19.8 106.919 19.8C108.079 19.8 108.989 19.68 109.649 19.44L109.979 19.32C110.459 19.1 110.859 18.99 111.179 18.99C111.819 18.99 112.369 19.44 112.829 20.34C113.089 20.88 113.219 21.34 113.219 21.72C113.219 23.5 111.089 24.39 106.829 24.39C105.349 24.39 104.029 24.14 102.869 23.64C101.729 23.12 100.839 22.44 100.199 21.6C98.9386 19.98 98.3086 18.17 98.3086 16.17C98.3086 13.65 99.1186 11.64 100.739 10.14C102.379 8.62 104.419 7.86 106.859 7.86C109.639 7.86 111.679 8.84 112.979 10.8C113.659 11.84 113.999 12.98 113.999 14.22ZM107.669 15.09C108.429 15.09 108.809 14.77 108.809 14.13C108.809 13.67 108.629 13.3 108.269 13.02C107.929 12.74 107.429 12.6 106.769 12.6C106.129 12.6 105.489 12.87 104.849 13.41C104.209 13.93 103.889 14.49 103.889 15.09H107.669Z" fill="#FA7436"/>
</svg>
