<svg width="137" height="29" viewBox="0 0 137 29" fill="none" xmlns="http://www.w3.org/2000/svg">
<path d="M3.168 1.576H23.184C23.952 1.576 24.516 1.672 24.876 1.864C25.236 2.032 25.476 2.308 25.596 2.692C25.716 3.076 25.776 3.58 25.776 4.204C25.776 4.828 25.716 5.332 25.596 5.716C25.476 6.076 25.272 6.328 24.984 6.472C24.552 6.688 23.94 6.796 23.148 6.796H16.272V24.904C16.272 25.456 16.248 25.864 16.2 26.128C16.176 26.392 16.068 26.704 15.876 27.064C15.708 27.4 15.396 27.64 14.94 27.784C14.484 27.928 13.884 28 13.14 28C12.396 28 11.796 27.928 11.34 27.784C10.908 27.64 10.596 27.4 10.404 27.064C10.236 26.704 10.128 26.392 10.08 26.128C10.056 25.84 10.044 25.42 10.044 24.868V6.796H3.132C2.364 6.796 1.8 6.712 1.44 6.544C1.08 6.352 0.84 6.064 0.72 5.68C0.6 5.296 0.54 4.792 0.54 4.168C0.54 3.544 0.6 3.052 0.72 2.692C0.84 2.308 1.044 2.044 1.332 1.9C1.764 1.684 2.376 1.576 3.168 1.576ZM36.3358 9.244C36.7918 9.388 37.1638 9.64 37.4518 10C37.7638 10.336 37.9198 10.888 37.9198 11.656C37.9198 12.424 37.6918 13.264 37.2358 14.176C36.7798 15.088 36.1198 15.544 35.2558 15.544C34.8238 15.544 34.4038 15.448 33.9958 15.256C33.6118 15.064 33.0958 14.968 32.4478 14.968C31.7998 14.968 31.1878 15.196 30.6118 15.652C30.0598 16.108 29.7838 16.66 29.7838 17.308V24.868C29.7838 25.42 29.7598 25.84 29.7118 26.128C29.6878 26.392 29.5798 26.704 29.3878 27.064C29.0278 27.688 28.0918 28 26.5798 28C25.4278 28 24.5998 27.796 24.0958 27.388C23.7118 27.052 23.4958 26.536 23.4478 25.84C23.4478 25.6 23.4478 25.252 23.4478 24.796V12.16C23.4478 11.608 23.4598 11.2 23.4838 10.936C23.5318 10.648 23.6398 10.336 23.8078 10C24.1438 9.352 25.0798 9.028 26.6158 9.028C28.0558 9.028 28.9558 9.304 29.3158 9.856C29.5798 10.24 29.7118 10.636 29.7118 11.044C29.8318 10.876 29.9998 10.672 30.2158 10.432C30.4558 10.192 30.9478 9.868 31.6918 9.46C32.4358 9.052 33.0838 8.848 33.6358 8.848C34.2118 8.848 34.6918 8.884 35.0758 8.956C35.4598 9.004 35.8798 9.1 36.3358 9.244ZM51.1231 11.044C51.2671 9.7 52.2151 9.028 53.9671 9.028C54.9031 9.028 55.5991 9.1 56.0551 9.244C56.5111 9.388 56.8231 9.64 56.9911 10C57.1831 10.36 57.2911 10.684 57.3151 10.972C57.3631 11.236 57.3871 11.644 57.3871 12.196V24.796C57.3871 25.348 57.3631 25.768 57.3151 26.056C57.2911 26.32 57.1951 26.632 57.0271 26.992C56.6911 27.616 55.8631 27.928 54.5431 27.928C53.2471 27.928 52.3711 27.772 51.9151 27.46C51.4831 27.124 51.2311 26.644 51.1591 26.02C50.2711 27.292 48.7831 27.928 46.6951 27.928C44.6311 27.928 42.7111 26.98 40.9351 25.084C39.1591 23.188 38.2711 20.992 38.2711 18.496C38.2711 15.976 39.1591 13.78 40.9351 11.908C42.7351 10.012 44.7031 9.064 46.8391 9.064C47.6551 9.064 48.3991 9.208 49.0711 9.496C49.7431 9.784 50.2111 10.06 50.4751 10.324C50.7391 10.564 50.9551 10.804 51.1231 11.044ZM44.5711 18.532C44.5711 19.324 44.8831 20.044 45.5071 20.692C46.1311 21.316 46.8871 21.628 47.7751 21.628C48.6631 21.628 49.3951 21.304 49.9711 20.656C50.5711 20.008 50.8711 19.3 50.8711 18.532C50.8711 17.74 50.5831 17.008 50.0071 16.336C49.4551 15.664 48.6991 15.328 47.7391 15.328C46.8031 15.328 46.0351 15.664 45.4351 16.336C44.8591 17.008 44.5711 17.74 44.5711 18.532ZM60.2564 12.196C60.2564 11.644 60.2684 11.236 60.2924 10.972C60.3404 10.684 60.4484 10.36 60.6164 10C60.9524 9.376 61.8884 9.064 63.4244 9.064C64.5764 9.064 65.3924 9.268 65.8724 9.676C66.2804 10.012 66.4964 10.528 66.5204 11.224C66.5444 11.464 66.5564 11.812 66.5564 12.268V24.868C66.5564 25.42 66.5324 25.84 66.4844 26.128C66.4604 26.392 66.3524 26.704 66.1604 27.064C65.8484 27.688 64.9244 28 63.3884 28C61.8764 28 60.9524 27.676 60.6164 27.028C60.4484 26.668 60.3404 26.356 60.2924 26.092C60.2684 25.828 60.2564 25.408 60.2564 24.832V12.196ZM66.1604 5.536C65.9924 5.872 65.6804 6.112 65.2244 6.256C64.7684 6.4 64.1564 6.472 63.3884 6.472C62.6444 6.472 62.0444 6.4 61.5884 6.256C61.1324 6.112 60.8084 5.86 60.6164 5.5C60.4484 5.14 60.3404 4.828 60.2924 4.564C60.2684 4.276 60.2564 3.856 60.2564 3.304C60.2564 2.752 60.2684 2.344 60.2924 2.08C60.3404 1.792 60.4484 1.48 60.6164 1.144C60.9524 0.495998 61.8884 0.171998 63.4244 0.171998C64.9364 0.171998 65.8484 0.495998 66.1604 1.144C66.3524 1.504 66.4604 1.828 66.4844 2.116C66.5324 2.38 66.5564 2.788 66.5564 3.34C66.5564 3.892 66.5324 4.312 66.4844 4.6C66.4604 4.864 66.3524 5.176 66.1604 5.536ZM79.9802 9.028C82.3802 9.028 84.3722 9.952 85.9562 11.8C87.5642 13.624 88.3682 15.856 88.3682 18.496V24.832C88.3682 25.384 88.3442 25.804 88.2962 26.092C88.2722 26.356 88.1762 26.656 88.0082 26.992C87.6722 27.64 86.7362 27.964 85.2002 27.964C83.4962 27.964 82.5122 27.52 82.2482 26.632C82.1042 26.224 82.0322 25.612 82.0322 24.796V18.46C82.0322 17.476 81.7442 16.708 81.1682 16.156C80.6162 15.604 79.8602 15.328 78.9002 15.328C77.9642 15.328 77.1962 15.616 76.5962 16.192C76.0202 16.768 75.7322 17.524 75.7322 18.46V24.832C75.7322 25.384 75.7082 25.804 75.6602 26.092C75.6362 26.356 75.5282 26.656 75.3362 26.992C75.0242 27.64 74.1002 27.964 72.5642 27.964C71.0522 27.964 70.1282 27.64 69.7922 26.992C69.6242 26.632 69.5162 26.32 69.4682 26.056C69.4442 25.768 69.4322 25.348 69.4322 24.796V12.052C69.4322 11.524 69.4442 11.128 69.4682 10.864C69.5162 10.576 69.6362 10.264 69.8282 9.928C70.1642 9.328 71.0882 9.028 72.6002 9.028C74.0642 9.028 74.9642 9.304 75.3002 9.856C75.5402 10.264 75.6602 10.756 75.6602 11.332C75.7562 11.164 75.9722 10.924 76.3082 10.612C76.6442 10.3 76.9682 10.048 77.2802 9.856C78.0962 9.304 78.9962 9.028 79.9802 9.028ZM91.2642 12.196C91.2642 11.644 91.2762 11.236 91.3002 10.972C91.3482 10.684 91.4562 10.36 91.6242 10C91.9602 9.376 92.8962 9.064 94.4322 9.064C95.5842 9.064 96.4002 9.268 96.8802 9.676C97.2882 10.012 97.5042 10.528 97.5282 11.224C97.5522 11.464 97.5642 11.812 97.5642 12.268V24.868C97.5642 25.42 97.5402 25.84 97.4922 26.128C97.4682 26.392 97.3602 26.704 97.1682 27.064C96.8562 27.688 95.9322 28 94.3962 28C92.8842 28 91.9602 27.676 91.6242 27.028C91.4562 26.668 91.3482 26.356 91.3002 26.092C91.2762 25.828 91.2642 25.408 91.2642 24.832V12.196ZM97.1682 5.536C97.0002 5.872 96.6882 6.112 96.2322 6.256C95.7762 6.4 95.1642 6.472 94.3962 6.472C93.6522 6.472 93.0522 6.4 92.5962 6.256C92.1402 6.112 91.8162 5.86 91.6242 5.5C91.4562 5.14 91.3482 4.828 91.3002 4.564C91.2762 4.276 91.2642 3.856 91.2642 3.304C91.2642 2.752 91.2762 2.344 91.3002 2.08C91.3482 1.792 91.4562 1.48 91.6242 1.144C91.9602 0.495998 92.8962 0.171998 94.4322 0.171998C95.9442 0.171998 96.8562 0.495998 97.1682 1.144C97.3602 1.504 97.4682 1.828 97.4922 2.116C97.5402 2.38 97.5642 2.788 97.5642 3.34C97.5642 3.892 97.5402 4.312 97.4922 4.6C97.4682 4.864 97.3602 5.176 97.1682 5.536ZM106.38 18.532C106.38 19.54 106.716 20.332 107.388 20.908C108.06 21.46 108.768 21.736 109.512 21.736C110.28 21.736 110.988 21.52 111.636 21.088C112.308 20.632 112.848 20.404 113.256 20.404C113.976 20.404 114.852 21.04 115.884 22.312C116.436 23.008 116.712 23.632 116.712 24.184C116.712 25.096 116.052 25.948 114.732 26.74C113.364 27.7 111.684 28.18 109.692 28.18C107.46 28.18 105.312 27.376 103.248 25.768C102.264 25 101.46 23.98 100.836 22.708C100.212 21.412 99.9 19.996 99.9 18.46C99.9 16.9 100.212 15.496 100.836 14.248C101.46 12.976 102.264 11.956 103.248 11.188C105.24 9.604 107.364 8.812 109.62 8.812C110.532 8.812 111.42 8.944 112.284 9.208C113.148 9.448 113.784 9.688 114.192 9.928L114.768 10.288C115.2 10.576 115.536 10.804 115.776 10.972C116.4 11.452 116.712 12.004 116.712 12.628C116.712 13.228 116.46 13.912 115.956 14.68C115.092 16 114.264 16.66 113.472 16.66C113.016 16.66 112.368 16.396 111.528 15.868C111.096 15.46 110.472 15.256 109.656 15.256C108.864 15.256 108.12 15.544 107.424 16.12C106.728 16.696 106.38 17.5 106.38 18.532ZM136.798 16.264C136.798 17.728 136.426 18.82 135.682 19.54C134.962 20.236 134.158 20.584 133.27 20.584H124.738C124.738 21.256 125.134 21.82 125.926 22.276C126.718 22.732 127.51 22.96 128.302 22.96C129.694 22.96 130.786 22.816 131.578 22.528L131.974 22.384C132.55 22.12 133.03 21.988 133.414 21.988C134.182 21.988 134.842 22.528 135.394 23.608C135.706 24.256 135.862 24.808 135.862 25.264C135.862 27.4 133.306 28.468 128.194 28.468C126.418 28.468 124.834 28.168 123.442 27.568C122.074 26.944 121.006 26.128 120.238 25.12C118.726 23.176 117.97 21.004 117.97 18.604C117.97 15.58 118.942 13.168 120.886 11.368C122.854 9.544 125.302 8.632 128.23 8.632C131.566 8.632 134.014 9.808 135.574 12.16C136.39 13.408 136.798 14.776 136.798 16.264ZM129.202 17.308C130.114 17.308 130.57 16.924 130.57 16.156C130.57 15.604 130.354 15.16 129.922 14.824C129.514 14.488 128.914 14.32 128.122 14.32C127.354 14.32 126.586 14.644 125.818 15.292C125.05 15.916 124.666 16.588 124.666 17.308H129.202Z" fill="white"/>
</svg>
